@startuml
title
    Keyple 2.0 - Plugin APIs dependencies - 21/05/2021
end title

' == THEME ==

'Couleurs issues de : https://htmlcolorcodes.com/fr/tableau-de-couleur/tableau-de-couleur-design-plat/
!define COLOR_YELLOW D4AC0D
!define COLOR_RED E74C3C
!define COLOR_PURPLE 8E44AD
!define COLOR_BLUE 3498DB
!define COLOR_GREEN 27AE60
!define COLOR_GREY 2C3E50

!define C_GREY1 F8F9F9
!define C_GREY2 F2F3F4
!define C_GREY3 E5E7E9
!define C_GREY4 D7DBDD
!define C_GREY5 CACFD2
!define C_GREY6 BDC3C7
!define C_LINK 3498DB
!define C_USE 27AE60

skinparam Shadowing false
skinparam component {
    BorderColor #D4AC0D
    ' Red
    BackgroundColor<<red>> #FDEDEC
    BorderColor<<red>> #E74C3C
    ' Purple
    BackgroundColor<<purple>> #F4ECF7
    BorderColor<<purple>> #8E44AD
    ' blue
    BackgroundColor<<blue>> #EBF5FB
    BorderColor<<blue>> #3498DB
    ' Green
    BackgroundColor<<green>> #E9F7EF
    BorderColor<<green>> #27AE60
    ' Grey
    BackgroundColor<<grey>> #EAECEE
    BorderColor<<grey>> #2C3E50
}
skinparam interface {
    BorderColor #D4AC0D
    ' Red
    BackgroundColor<<red>> #FDEDEC
    BorderColor<<red>> #E74C3C
    ' Purple
    BackgroundColor<<purple>> #F4ECF7
    BorderColor<<purple>> #8E44AD
    ' blue
    BackgroundColor<<blue>> #EBF5FB
    BorderColor<<blue>> #3498DB
    ' Green
    BackgroundColor<<green>> #E9F7EF
    BorderColor<<green>> #27AE60
    ' Grey
    BackgroundColor<<grey>> #EAECEE
    BorderColor<<grey>> #2C3E50
}
hide <<red>> stereotype
hide <<purple>> stereotype
hide <<blue>> stereotype
hide <<green>> stereotype
hide <<grey>> stereotype

' == COMPONENTS ==

[Specific Application] as application <<blue>>
package "keyple-java-service" as packService {
    interface "Service API" as serviceApi
    interface "Service SPI" as serviceSpi <<blue>>
    [Adapter] as service
}
package "Specific Plugin (PCSC...)" as packPlugin {
    interface "Specific Plugin API" as specificPluginApi <<red>>
    [Adapter] as plugin <<red>>
}
package "keyple-java-plugin-api" as packPluginApi {
    interface "Plugin SPI" as pluginSpi <<red>>
    interface "Plugin API" as pluginApi
}

' == ASSOCIATIONS ==

application -- serviceSpi #COLOR_BLUE

plugin -up- specificPluginApi #COLOR_RED
plugin -- pluginSpi #COLOR_RED

service -up- serviceApi #COLOR_YELLOW
service -- pluginApi #COLOR_YELLOW

' USE

application ..> specificPluginApi : use
application ..> serviceApi : use

service .up.> serviceSpi : use
service ..> pluginSpi : use

plugin ..> pluginApi : use

' == STYLE ==

package packPlugin #C_GREY1 {
}
package packService #C_GREY1 {
}
package packPluginApi #C_GREY1 {
}

@enduml