@startuml
title
    Keyple 2.0 - Card APIs dependencies - 21/05/2021
end title

' == THEME ==

'Couleurs issues de : https://htmlcolorcodes.com/fr/tableau-de-couleur/tableau-de-couleur-design-plat/
!define COLOR_YELLOW D4AC0D
!define COLOR_RED E74C3C
!define COLOR_PURPLE 8E44AD
!define COLOR_BLUE 3498DB
!define COLOR_GREEN 27AE60
!define COLOR_GREY 2C3E50

!define C_GREY1 F8F9F9
!define C_GREY2 F2F3F4
!define C_GREY3 E5E7E9
!define C_GREY4 D7DBDD
!define C_GREY5 CACFD2
!define C_GREY6 BDC3C7
!define C_LINK 3498DB
!define C_USE 27AE60

skinparam Shadowing false
skinparam component {
    BorderColor #D4AC0D
    ' Red
    BackgroundColor<<red>> #FDEDEC
    BorderColor<<red>> #E74C3C
    ' Purple
    BackgroundColor<<purple>> #F4ECF7
    BorderColor<<purple>> #8E44AD
    ' blue
    BackgroundColor<<blue>> #EBF5FB
    BorderColor<<blue>> #3498DB
    ' Green
    BackgroundColor<<green>> #E9F7EF
    BorderColor<<green>> #27AE60
    ' Grey
    BackgroundColor<<grey>> #EAECEE
    BorderColor<<grey>> #2C3E50
}
skinparam interface {
    BorderColor #D4AC0D
    ' Red
    BackgroundColor<<red>> #FDEDEC
    BorderColor<<red>> #E74C3C
    ' Purple
    BackgroundColor<<purple>> #F4ECF7
    BorderColor<<purple>> #8E44AD
    ' blue
    BackgroundColor<<blue>> #EBF5FB
    BorderColor<<blue>> #3498DB
    ' Green
    BackgroundColor<<green>> #E9F7EF
    BorderColor<<green>> #27AE60
    ' Grey
    BackgroundColor<<grey>> #EAECEE
    BorderColor<<grey>> #2C3E50
}
hide <<red>> stereotype
hide <<purple>> stereotype
hide <<blue>> stereotype
hide <<green>> stereotype
hide <<grey>> stereotype

' == COMPONENTS ==

[Specific Application] as application <<blue>>
package "Specific Card Extension\n(Calypso...)" as packExtension {
    interface "Specific\nCard\nExtension\nAPI" as specificCardExtensionApi <<green>>
    [Adapter] as extension <<green>>
}
package "calypsonet-terminal-reader-java-api" as packReaderApi {
    interface "Reader API" as readerApi
    interface "Reader SPI" as readerSpi <<blue>>
    interface "Selection API" as selectionApi
    interface "Selection SPI" as selectionSpi <<green>>
}
package "keyple-java-service" as packService {
    interface "Service API" as serviceApi
    interface "Service SPI" as serviceSpi <<blue>>
    [Adapter] as service
}
package "calypsonet-terminal-card-java-api" as packCardApi {
    interface "Card SPI" as cardSpi <<green>>
    interface "Card API" as cardApi
}

' == ASSOCIATIONS ==

application -- readerSpi #COLOR_BLUE
application -- serviceSpi #COLOR_BLUE

extension -up- specificCardExtensionApi #COLOR_GREEN
extension -up- selectionSpi #COLOR_GREEN
extension -- cardSpi #COLOR_GREEN

service -up- readerApi #COLOR_YELLOW
service -up- selectionApi #COLOR_YELLOW
service -up- serviceApi #COLOR_YELLOW
service -- cardApi #COLOR_YELLOW

' USE

application ..> specificCardExtensionApi : use
application ..> readerApi : use
application ..> selectionApi : use
application ..> serviceApi : use

'service .up.> serviceSpi : use
'service .left.> selectionSpi : use
service ..> cardSpi : use

extension ..> cardApi : use
'extension .up.> readerApi : use

'specificCardExtensionApi .right.> readerApi : ref

' == STYLE ==

package packExtension #C_GREY1 {
}
package packReaderApi #C_GREY1 {
}
package packService #C_GREY1 {
}
package packCardApi #C_GREY1 {
}

@enduml