@startuml
title
    Keyple 2.0 - Adapter of keyple-java-service - 2.0.0 (08/03/2021)
end title

' == THEME ==

'Couleurs issues de : https://htmlcolorcodes.com/fr/tableau-de-couleur/tableau-de-couleur-design-plat/
!define C_GREY1 F8F9F9
!define C_GREY2 F2F3F4
!define C_GREY3 E5E7E9
!define C_GREY4 D7DBDD
!define C_GREY5 CACFD2
!define C_GREY6 BDC3C7
!define C_LINK 3498DB
!define C_USE 27AE60

skinparam Shadowing false
skinparam ClassFontStyle italic
skinparam ClassBorderColor #D4AC0D
skinparam stereotypeABorderColor #A9DCDF
skinparam stereotypeIBorderColor #B4A7E5
skinparam stereotypeCBorderColor #ADD1B2
skinparam stereotypeEBorderColor #EB93DF
' Red
skinparam ClassBackgroundColor<<red>> #FDEDEC
skinparam ClassBorderColor<<red>> #E74C3C
hide <<red>> stereotype
' Purple
skinparam ClassBackgroundColor<<purple>> #F4ECF7
skinparam ClassBorderColor<<purple>> #8E44AD
hide <<purple>> stereotype
' blue
skinparam ClassBackgroundColor<<blue>> #EBF5FB
skinparam ClassBorderColor<<blue>> #3498DB
hide <<blue>> stereotype
' Green
skinparam ClassBackgroundColor<<green>> #E9F7EF
skinparam ClassBorderColor<<green>> #27AE60
hide <<green>> stereotype
' Grey
skinparam ClassBackgroundColor<<grey>> #EAECEE
skinparam ClassBorderColor<<grey>> #2C3E50
hide <<grey>> stereotype

' == CONTENT ==

legend top
    Legend : <back:cyan>from **Commons API**</back> - <back:lightGreen>from **Card API**</back> - <back:pink>from **Plugin API**</back> - <back:plum>from **Remote Plugin API**</back> - <back:orange>from **Local Service API**</back>
end legend

package "org.eclipse.keyple.core.service" as service {
    ' SPI
    package spi {
        +interface PluginObserverSpi {
            ...
        }
        +interface PluginObservationExceptionHandlerSpi {
            ...
        }
        +interface ReaderObserverSpi {
            ...
        }
        +interface ReaderObservationExceptionHandlerSpi {
            ...
        }
    }
    ' SERVICE
    +class "**final** ServiceApiProperties" as ApiProperties {
        +{static} **final** String VERSION
    }
    +class "**final** SmartCardServiceProvider" as SmartCardServiceProvider {
        ...
    }
    +interface SmartCardService {
        ...
    }
    +interface Plugin {
        ...
    }
    +interface DistributedLocalService {
        ...
    }
    +interface ObservablePlugin extends Plugin {
        ...
    }
    +interface PoolPlugin extends Plugin {
        ...
    }
    +interface Reader {
        ...
    }
    +interface ObservableReader extends Reader {
        ...
    }
    +enum NotificationMode {
        ...
    }
    +enum PollingMode {
        ...
    }

    ' ADAPTERS
    ~class CardCommunicationExceptionJsonSerializer {
    }
    ~class "**final** SmartCardServiceAdapter" as SmartCardServiceAdapter implements SmartCardService {
        --
        ~{static} getInstance ()
        ..
        +Plugin registerPlugin (<back:cyan>KeyplePluginExtensionFactory</back> pluginFactory)
        +void unregisterPlugin (String pluginName)
        +boolean isPluginRegistered (String pluginName)
        ..
        +Map<String, Plugin> getPlugins ()
        +Plugin getPlugin (String pluginName)
        ..
        +void checkCardExtension (<back:cyan>KeypleCardExtension</back> cardExtension)
        ..
        +DistributedLocalService registerDistributedLocalService (
            \t<back:cyan>KeypleDistributedLocalServiceExtensionFactory</back> distributedLocalServiceFactory)
        +void unregisterDistributedLocalService (
            \tString distributedLocalServiceName)
        ..
        +void getDistributedLocalService (
            \tString distributedLocalServiceName)
    }
    ' PLUGIN
    ~class "<<<back:plum>RemotePluginManager</back>>>\nPluginAdapter\n\n<back:pink>PluginSpi</back>\nor <back:plum>RemotePluginSpi</back>" as PluginAdapter<PluginSpiT> implements Plugin {
        ~Map<String, Reader> readers
        --
        ~PluginAdapter (PluginSpiT pluginSpi)
        ..
        +**final** String getName ()
        +**final** <T extends <back:cyan>KeyplePluginExtension</back>> T getExtension (
            \tClass<T> pluginType)
        +**final** Map<String, Reader> getReaders ()
        +**final** Set<String> getReadersNames ()
        +**final** Reader getReader (String name)
        ..
        +**final** void onReaderEvent (String jsonData)
        ..
        ~void checkStatus ()
        ~void register ()
        ~void unregister ()
    }
    ~class "<<<back:orange>LocalServiceManager</back>>>\n**final** DistributedLocalServiceAdapter" as DistributedLocalServiceAdapter implements DistributedLocalService {
        --
        ~DistributedLocalServiceAdapter (String name,
            \t<back:orange>LocalServiceSpi</back> localServiceSpi)
        ..
        +String getName ()
        +<T extends <back:cyan>KeypleDistributedLocalServiceExtension</back>> T getExtension (
            \tClass<T> distributedLocalServiceType)
        ..
        +String executeLocally (String readerName, String jsonData)
        +boolean isReaderObservable (String readerName)
        +void activateReaderObservation (String readerName)
        ..
        ~void checkStatus ()
        ~void register ()
        ~void unregister ()
    }
    ~class "PoolPluginAdapter\n\n<back:pink>PoolPluginSpi</back>\nor <back:plum>RemotePluginSpi</back>" as PoolPluginAdapter<PoolPluginSpiT> extends PluginAdapter implements PoolPlugin {
        --
        ~PoolPluginAdapter (PoolPluginSpiT poolPluginSpi)
        ..
        +SortedSet<String> getReaderGroupReferences ()
        ..
        +Reader allocateReader (String readerGroupReference)
        +void releaseReader (Reader reader)
    }
    ~abstract class "AbstractObservablePluginAdapter\n\n<back:pink>ObservablePluginSpi</back>\nor <back:pink>AutonomousObservablePluginSpi</back>\nor <back:plum>RemotePluginSpi</back>" as AbstractObservablePluginAdapter<ObservablePluginSpiT> extends PluginAdapter implements ObservablePlugin {
        --
        ~AbstractObservablePluginAdapter (
            \tObservablePluginSpiT observablePluginSpi)
        ..
        +void addObserver (PluginObserverSpi observer)
        +void removeObserver (PluginObserverSpi observer)
        +void clearObservers ()
        +**final** int countObservers ()
        ..
        +**final** void setEventNotificationExecutorService (
            \tExecutorService eventNotificationExecutorService)
        +void setPluginObservationExceptionHandler (
            \tPluginObservationExceptionHandlerSpi exceptionHandler)
        ..
        ~**final** void unregister ()
        ~**final** void notifyObservers (PluginEvent event)
    }
    ~class "<<<back:plum>ObservableRemotePluginManager</back>>>\n**final** ObservableRemotePluginAdapter" as ObservableRemotePluginAdapter extends AbstractObservablePluginAdapter {
        --
        ~ObservableRemotePluginAdapter (
            \t<back:plum>RemotePluginSpi</back> remotePluginSpi)
        ..
        +void registerMasterReader (<back:plum>RemoteReaderSpi</back> masterReaderSpi)
        +void registerSlaveReader (<back:plum>RemoteReaderSpi</back> slaveReaderSpi,
            \tString masterReaderName,
            \tString readerEventJsonData)
        +boolean unregisterReader (readerName)
        ..
        +void onPluginEvent (String jsonData)
        ..
        +void setPluginObservationExceptionHandler (
            \tPluginObservationExceptionHandlerSpi exceptionHandler)
    }
    ~class "**final** ObservableLocalPluginAdapter" as ObservableLocalPluginAdapter extends AbstractObservablePluginAdapter {
        --
        ~ObservableLocalPluginAdapter (
            \t<back:pink>ObservablePluginSpi</back> observablePluginSpi)
        ..
        +void addObserver (PluginObserverSpi observer)
        +void removeObserver (PluginObserverSpi observer)
        +void clearObservers ()
        ..
        ~Boolean isMonitoring ()
    }
    ~class "<<<back:pink>AutonomousObservablePluginManager</back>>>\n**final** AutonomousObservableLocalPluginAdapter" as AutonomousObservableLocalPluginAdapter extends AbstractObservablePluginAdapter {
        --
        ~AutonomousObservableLocalPluginAdapter (
            \t<back:pink>AutonomousObservablePluginSpi</back> autonomousObservablePluginSpi)
        ..
        +void onReaderConnected (Set<<back:pink>ReaderSpi</back>> readers)
        +void onReaderDisconnected (Set<String> readersNames)
        ..
        +void setPluginObservationExceptionHandler (
            \tPluginObservationExceptionHandlerSpi exceptionHandler)
    }
    ' READERS
    ~abstract class "<<<back:lightGreen>ProxyReader</back>>>\nAbstractReaderAdapter" as AbstractReaderAdapter implements Reader {
        --
        ~AbstractReaderAdapter (String readerName, String pluginName)
        ..
        +**final** String getName ()
        ~**final** String getPluginName ()
        ..
        ~**final** List<<back:lightGreen>CardSelectionResponse</back>> transmitCardSelectionRequests (
            \tList<<back:lightGreen>CardSelectionRequest</back>> cardSelectionRequests,
            \t<back:lightGreen>MultiSelectionProcessing</back> multiSelectionProcessing,
            \t<back:lightGreen>ChannelControl</back> channelControl)
        ..
        +**final** <back:lightGreen>CardResponse</back> transmitCardRequest (
            \t<back:lightGreen>CardRequest</back> cardRequest,
            \t<back:lightGreen>ChannelControl</back> channelControl)
        ..
        ~{abstract} List<<back:lightGreen>CardSelectionResponse</back>> processCardSelectionRequests (
            \tList<<back:lightGreen>CardSelectionRequest</back>> cardSelectionRequests,
            \t<back:lightGreen>MultiSelectionProcessing</back> multiSelectionProcessing,
            \t<back:lightGreen>ChannelControl</back> channelControl)
        ~{abstract} <back:lightGreen>CardResponse</back> processCardRequest (
            \t<back:lightGreen>CardRequest</back> cardRequest,
            \t<back:lightGreen>ChannelControl</back> channelControl)
        ..
        ~void checkStatus ()
        ~void register ()
        ~void unregister ()
    }
    ~class LocalReaderAdapter extends AbstractReaderAdapter {
        --
        ~LocalReaderAdapter (<back:pink>ReaderSpi</back> readerSpi, String pluginName)
        ..
        +**final** <T extends <back:cyan>KeypleReaderExtension</back>> T getExtension (Class<T> readerType)
        +**final** boolean isContactless ()
        +boolean isCardPresent ()
        +**final** void activateProtocol (
            \tString readerProtocol, String cardProtocol)
        +**final** void deactivateProtocol (String readerProtocol)
        ..
        +**final** void releaseChannel ()
        ..
        ~**final** List<<back:lightGreen>CardSelectionResponse</back>> processCardSelectionRequests (
            \tList<<back:lightGreen>CardSelectionRequest</back>> cardSelectionRequests,
            \t<back:lightGreen>MultiSelectionProcessing</back> multiSelectionProcessing,
            \t<back:lightGreen>ChannelControl</back> channelControl)
        ~**final** <back:lightGreen>CardResponse</back> processCardRequest (
            \t<back:lightGreen>CardRequest</back> cardRequest,
            \t<back:lightGreen>ChannelControl</back> channelControl)
        ..
        ~**final** boolean isLogicalChannelOpen ()
        ~**final** void closeLogicalAndPhysicalChannels ()
    }
    ~class RemoteReaderAdapter extends AbstractReaderAdapter {
        --
        ~RemoteReaderAdapter (<back:plum>RemoteReaderSpi</back> remoteReaderSpi, String pluginName)
        ..
        +**final** <T extends <back:cyan>KeypleReaderExtension</back>> T getExtension (Class<T> readerType)
        +**final** boolean isContactless ()
        +**final** boolean isCardPresent ()
        +**final** void activateProtocol (
            \tString readerProtocol, String cardProtocol)
        +**final** void deactivateProtocol (String readerProtocol)
        ..
        +**final** void releaseChannel ()
        ..
        ~**final** List<<back:lightGreen>CardSelectionResponse</back>> processCardSelectionRequests (
            \tList<<back:lightGreen>CardSelectionRequest</back>> cardSelectionRequests,
            \t<back:lightGreen>MultiSelectionProcessing</back> multiSelectionProcessing,
            \t<back:lightGreen>ChannelControl</back> channelControl)
        ~**final** <back:lightGreen>CardResponse</back> processCardRequest (
            \t<back:lightGreen>CardRequest</back> cardRequest,
            \t<back:lightGreen>ChannelControl</back> channelControl)
    }
    ~class "<<<back:pink>WaitForCardInsertionAutonomousReaderManager</back>>>\n<<<back:pink>WaitForCardRemovalAutonomousReaderManager</back>>>\n**final** ObservableLocalReaderAdapter" as ObservableLocalReaderAdapter extends LocalReaderAdapter implements ObservableReader {
        --
        ~ObservableLocalReaderAdapter (
            \t<back:pink>ObservableReaderSpi</back> observableReaderSpi,
            \tString pluginName)
        ..
        ~void onStartDetection ()
        ~void onStopDetection ()
        ~<back:pink>ReaderObservationExceptionHandlerSpi</back> getObservationExceptionHandler ()
        ..
        +boolean isCardPresent ()
        ..
        +void addObserver (ReaderObserverSpi observer)
        +void removeObserver (ReaderObserverSpi observer)
        +int countObservers ()
        +void clearObservers ()
        +void finalizeCardProcessing ()
        ..
        ~void scheduleCardSelectionScenario (
            \t<back:lightGreen>CardSelectionScenario</back> cardSelectionScenario,
            \tNotificationMode notificationMode)
        ~void scheduleCardSelectionScenario (
            \t<back:lightGreen>CardSelectionScenario</back> cardSelectionScenario,
            \tNotificationMode notificationMode,
            \tPollingMode pollingMode)
        ..
        +void startCardDetection (PollingMode pollingMode)
        +void stopCardDetection ()
        ..
        +void onCardInserted ()
        ..
        +void onCardRemoved ()
        ..
        +void setEventNotificationExecutorService (
            \tExecutorService eventNotificationExecutorService)
        +void setReaderObservationExceptionHandler (
            \tReaderObservationExceptionHandlerSpi exceptionHandler)
        ..
        ~void notifyObservers (ReaderEvent event)
        ..
        ~ReaderEvent processCardInserted ()
        ~boolean isCardPresentPing ()
        ~void processCardRemoved ()
        ~PollingMode getPollingMode ()
        ~void switchState (MonitoringState stateId)
        ~MonitoringState getCurrentMonitoringState ()
        ~void onEvent (InternalEvent event)
        ..
        ~void unregister ()
    }
    ~enum InternalEvent {
        CARD_INSERTED
        CARD_REMOVED
        SE_PROCESSED
        START_DETECT
        STOP_DETECT
        TIME_OUT
    }
    ~class "**final** ObservableRemoteReaderAdapter" as ObservableRemoteReaderAdapter extends RemoteReaderAdapter implements ObservableReader {
        --
        ~ObservableRemoteReaderAdapter (
            \t<back:plum>RemoteReaderSpi</back> remoteReaderSpi,
            \tString pluginName)
        ..
        +void addObserver (ReaderObserverSpi observer)
        +void removeObserver (ReaderObserverSpi observer)
        +int countObservers ()
        +void clearObservers ()
        +void finalizeCardProcessing ()
        ..
        ~void scheduleCardSelectionScenario (
            \t<back:lightGreen>CardSelectionScenario</back> cardSelectionScenario,
            \tNotificationMode notificationMode)
        ~void scheduleCardSelectionScenario (
            \t<back:lightGreen>CardSelectionScenario</back> cardSelectionScenario,
            \tNotificationMode notificationMode,
            \tPollingMode pollingMode)
        ..
        +void startCardDetection (PollingMode pollingMode)
        +void stopCardDetection ()
        ..
        +void setEventNotificationExecutorService (
            \tExecutorService eventNotificationExecutorService)
        +void setReaderObservationExceptionHandler (
            \tReaderObservationExceptionHandlerSpi exceptionHandler)
        ..
        ~void notifyObservers (ReaderEvent event)
        ..
        ~void unregister ()
    }

    ' AUTOMATE
    ~class "**final** ObservableReaderStateService" as ObservableReaderStateService {
        --
        ~ObservableReaderStateService (ObservableLocalReaderAdapter reader)
        ..
        ~void onEvent (InternalEvent event)
        ~void switchState (MonitoringState stateId)
        ~AbstractObservableState getCurrentState ()
        ~MonitoringState getCurrentMonitoringState ()
        ~void shutdown ()
    }
    ~abstract class AbstractObservableState {
        ~MonitoringState state
        ~ObservableLocalReaderAdapter reader
        --
        ~AbstractObservableState (
            \tMonitoringState state,
            \tObservableLocalReaderAdapter reader,
            \tAbstractMonitoringJob monitoringJob,
            \tExecutorService executorService)
        ~AbstractObservableState (
            \tMonitoringState state,
            \tObservableLocalReaderAdapter reader)
        ..
        ~MonitoringState getMonitoringState ()
        ..
        ~void switchState (MonitoringState stateId)
        ..
        ~void onActivate ()
        ~void onDeactivate ()
        ..
        ~{abstract} void onEvent (InternalEvent event)
    }
    together {
        ~enum MonitoringState {
            WAIT_FOR_START_DETECTION
            WAIT_FOR_SE_INSERTION
            WAIT_FOR_SE_PROCESSING
            WAIT_FOR_SE_REMOVAL
        }
        ~class "**final** WaitForCardInsertionState" as WaitForCardInsertionState extends AbstractObservableState {
            --
            ~WaitForCardInsertionState (
                \tObservableLocalReaderAdapter reader,
                \tAbstractMonitoringJob monitoringJob,
                \tExecutorService executorService)
            ~WaitForCardInsertionState (
                \tObservableLocalReaderAdapter reader)
        }
        ~class "**final** WaitForCardProcessingState" as WaitForCardProcessingState extends AbstractObservableState {
            --
            ~WaitForCardProcessingState (
                \tObservableLocalReaderAdapter reader,
                \tAbstractMonitoringJob monitoringJob,
                \tExecutorService executorService)
            ~WaitForCardProcessingState (
                \tObservableLocalReaderAdapter reader)
        }
        ~class "**final** WaitForCardRemovalState" as WaitForCardRemovalState extends AbstractObservableState {
            --
            ~WaitForCardRemovalState (
                \tObservableLocalReaderAdapter reader,
                \tAbstractMonitoringJob monitoringJob,
                \tExecutorService executorService)
            ~WaitForCardRemovalState (
                \tObservableLocalReaderAdapter reader)
        }
        ~class "**final** WaitForStartDetectState" as WaitForStartDetectState extends AbstractObservableState {
            --
            ~WaitForStartDetectState (
                \tObservableLocalReaderAdapter reader,
                \tAbstractMonitoringJob monitoringJob,
                \tExecutorService executorService)
            ~WaitForStartDetectState (
                \tObservableLocalReaderAdapter reader)
        }
        ~abstract class AbstractMonitoringJob {
            --
            ~AbstractMonitoringJob ()
            ..
            ~{abstract} Runnable getMonitoringJob (AbstractObservableState state)
            ~{abstract} void stop ()
        }
        ~class "**final** CardAbsentPingMonitoringJob" as CardAbsentPingMonitoringJob extends AbstractMonitoringJob {
            --
            ~CardAbsentPingMonitoringJob (
                \tObservableLocalReaderAdapter reader)
            ~CardAbsentPingMonitoringJob (
                \tObservableLocalReaderAdapter reader,
                \tlong removalWait)
        }
        ~class "**final** CardPresentMonitoringJob" as CardPresentMonitoringJob extends AbstractMonitoringJob {
            --
            ~CardPresentMonitoringJob (
                \tReader reader,
                \tlong waitTimeout,
                \tboolean monitorInsertion)
        }
        ~class "**final** SmartInsertionMonitoringJob" as SmartInsertionMonitoringJob extends AbstractMonitoringJob {
            --
            ~SmartInsertionMonitoringJob (
                \t<back:pink>WaitForCardInsertionBlockingSpi</back> reader)
        }
        ~class "**final** SmartRemovalMonitoringJob" as SmartRemovalMonitoringJob extends AbstractMonitoringJob {
            --
            ~SmartRemovalMonitoringJob (
                \t<back:pink>WaitForCardRemovalBlockingSpi</back> reader)
        }
    }

    ' SELECTION
    +class "**final** CardSelectionServiceFactory" as CardSelectionServiceFactory {
        ...
    }
    package selection {
        +interface CardSelectionService {
            ...
        }
        +interface CardSelectionResult {
            ...
        }
    }
    ' ADAPTERS
    ~class "**final** CardSelectionServiceAdapter" as CardSelectionServiceAdapter implements CardSelectionService {
        --
        ~CardSelectionServiceAdapter ()
        ~CardSelectionServiceAdapter (
            \tMultiSelectionProcessing multiSelectionProcessing)
        ..
        +int prepareSelection (CardSelection cardSelection)
        +void prepareReleaseChannel ()
        ..
        +CardSelectionResult processCardSelectionScenario (
            \tReader reader)
        ..
        +void scheduleCardSelectionScenario (
            \tObservableReader observableReader,
            \tNotificationMode notificationMode)
        +void scheduleCardSelectionScenario (
            \tObservableReader observableReader,
            \tNotificationMode notificationMode,
            \tPollingMode pollingMode)
        ..
        +CardSelectionResult processCardSelectionResponses (
            \tList<<back:cyan>KeypleCardSelectionResponse</back>> cardSelectionResponses)
    }
    ~class "**final** CardSelectionResultAdapter" as CardSelectionResultAdapter implements CardSelectionResult {
        --
        ~CardSelectionResultAdapter ()
        ..
        +boolean hasActiveSelection ()
        +int getActiveSelectionIndex ()
        +boolean hasSelectionMatched (int selectionIndex)
        ..
        +Map<Integer, SmartCard> getSmartCards ()
        +SmartCard getSmartCard (int selectionIndex)
        +SmartCard getActiveSmartCard ()
        ..
        ~void addSmartCard (int selectionIndex,
            \tSmartCard smartCard, boolean isSelected)
    }
}

' Associations

SmartCardServiceProvider ..> SmartCardService #C_USE : provide >

SmartCardServiceAdapter *-- "0..N" Plugin #C_LINK
SmartCardServiceAdapter *-- "0..N" DistributedLocalService #C_LINK

ObservableReader +-- NotificationMode
ObservableReader +-- PollingMode

ObservableLocalReaderAdapter +-- InternalEvent
ObservableLocalReaderAdapter "1" *--* "1" ObservableReaderStateService #C_LINK

ObservableReaderStateService *-- "1..N" AbstractObservableState #C_LINK

AbstractObservableState +-- MonitoringState
AbstractObservableState *-- "1" MonitoringState #C_LINK
AbstractObservableState *-- "1" ObservableLocalReaderAdapter #C_LINK
AbstractObservableState *-- "0..1" AbstractMonitoringJob #C_LINK

PluginAdapter *-- "0..N" Reader #C_LINK

AbstractObservablePluginAdapter *-- "0..N" PluginObserverSpi #C_LINK
AbstractObservablePluginAdapter *-- "0..1" PluginObservationExceptionHandlerSpi #C_LINK

ObservableLocalReaderAdapter *-- "0..N" ReaderObserverSpi #C_LINK
ObservableLocalReaderAdapter *-- "0..1" ReaderObservationExceptionHandlerSpi #C_LINK

ObservableRemoteReaderAdapter *-- "0..N" ReaderObserverSpi #C_LINK
ObservableRemoteReaderAdapter *-- "0..1" ReaderObservationExceptionHandlerSpi #C_LINK

CardSelectionServiceFactory ..> CardSelectionService #C_USE : create >

CardSelectionService ..> CardSelectionResult #C_USE : provide >

' == LAYOUT ==

'CardAPI -[hidden]- SmartCardService

' == STYLE ==

package service #C_GREY1 {}
package spi #C_GREY2 {}

class CardCommunicationExceptionJsonSerializer <<blue>>
class SmartCardServiceAdapter <<blue>>
abstract class AbstractReaderAdapter <<blue>>
class LocalReaderAdapter <<blue>>
class RemoteReaderAdapter <<blue>>
class ObservableLocalReaderAdapter <<blue>>
class ObservableRemoteReaderAdapter <<blue>>
enum InternalEvent <<blue>>
class AutonomousObservableLocalReaderAdapter <<blue>>
abstract class AbstractObservableState <<blue>>
enum MonitoringState <<blue>>
abstract class AbstractMonitoringJob <<blue>>
class CardAbsentPingMonitoringJob <<blue>>
class CardPresentMonitoringJob <<blue>>
class SmartInsertionMonitoringJob <<blue>>
class SmartRemovalMonitoringJob <<blue>>
class WaitForCardInsertionState <<blue>>
class WaitForCardProcessingState <<blue>>
class WaitForCardRemovalState <<blue>>
class WaitForStartDetectState <<blue>>
class ObservableReaderStateService <<blue>>

class PluginAdapter <<blue>>
class PoolPluginAdapter <<blue>>
abstract class AbstractObservablePluginAdapter <<blue>>
class ObservableLocalPluginAdapter <<blue>>
class ObservableRemotePluginAdapter <<blue>>
class ObservableLocalPluginAdapter <<blue>>
class AutonomousObservableLocalPluginAdapter <<blue>>
class DistributedLocalServiceAdapter <<blue>>

class CardSelectionServiceAdapter <<blue>>
class CardSelectionResultAdapter <<blue>>

@enduml